<svg xmlns="http://www.w3.org/2000/svg" width="33" height="32" viewBox="0 0 33 32" fill="none">
  <mask id="mask0_1_475" style="mask-type:alpha" maskUnits="userSpaceOnUse" x="0" y="0" width="33" height="32">
    <rect x="0.5" width="32" height="32" fill="#D9D9D9"/>
  </mask>
  <g mask="url(#mask0_1_475)">
    <path d="M17.5667 30.6666C15.7444 30.6666 14.0333 30.25 12.4333 29.4166C10.8333 28.5833 9.52222 27.4222 8.5 25.9333L2.1 16.5333L2.73333 15.9C3.17778 15.4333 3.72778 15.1666 4.38333 15.1C5.03889 15.0333 5.63333 15.1889 6.16667 15.5666L9.83333 18.1V5.33331C9.83333 4.95554 9.96111 4.63887 10.2167 4.38331C10.4722 4.12776 10.7889 3.99998 11.1667 3.99998C11.5444 3.99998 11.8611 4.12776 12.1167 4.38331C12.3722 4.63887 12.5 4.95554 12.5 5.33331V23.2333L7.56667 19.8L10.7333 24.4C11.5111 25.5333 12.5 26.4166 13.7 27.05C14.9 27.6833 16.1889 28 17.5667 28C19.8556 28 21.8056 27.1944 23.4167 25.5833C25.0278 23.9722 25.8333 22.0222 25.8333 19.7333V6.66665C25.8333 6.28887 25.9611 5.9722 26.2167 5.71665C26.4722 5.46109 26.7889 5.33331 27.1667 5.33331C27.5444 5.33331 27.8611 5.46109 28.1167 5.71665C28.3722 5.9722 28.5 6.28887 28.5 6.66665V19.7333C28.5 22.7778 27.4389 25.3611 25.3167 27.4833C23.1944 29.6055 20.6111 30.6666 17.5667 30.6666ZM15.1667 16V2.66665C15.1667 2.28887 15.2944 1.9722 15.55 1.71665C15.8056 1.46109 16.1222 1.33331 16.5 1.33331C16.8778 1.33331 17.1944 1.46109 17.45 1.71665C17.7056 1.9722 17.8333 2.28887 17.8333 2.66665V16H15.1667ZM20.5 16V3.99998C20.5 3.6222 20.6278 3.30554 20.8833 3.04998C21.1389 2.79442 21.4556 2.66665 21.8333 2.66665C22.2111 2.66665 22.5278 2.79442 22.7833 3.04998C23.0389 3.30554 23.1667 3.6222 23.1667 3.99998V16H20.5Z" fill="#2B50AA"/>
  </g>
</svg>